<?xml version="1.0" ?>
<!-- Uploaded to: SVG Repo, www.svgrepo.com, Generator: SVG Repo Mixer Tools -->
<svg fill="#000000" width="800px" height="800px" viewBox="0 0 32 32" xmlns="http://www.w3.org/2000/svg">
<title/>
<g id="Call">
<path d="M26.49,30H5.5A3.35,3.35,0,0,1,3,29a3.35,3.35,0,0,1-1-2.48V5.5A3.35,3.35,0,0,1,3,3,3.35,3.35,0,0,1,5.5,2h21A3.35,3.35,0,0,1,29,3,3.35,3.35,0,0,1,30,5.5v21A3.52,3.52,0,0,1,26.49,30Zm-5.56-5.67a3.22,3.22,0,0,0,2-.73,3.1,3.1,0,0,0,1.45-2.33,2,2,0,0,0-1.05-1.51,17.19,17.19,0,0,0-1.94-1.29,2.24,2.24,0,0,0-1.44-.61l-.44,0q-.4,0-1,1a1.16,1.16,0,0,1-1,.54,1.94,1.94,0,0,1-.76-.18,7.5,7.5,0,0,1-4.11-4,2,2,0,0,1-.26-.93,4,4,0,0,1,.05-.45c0-.22.25-.45.68-.71a2.9,2.9,0,0,0,.66-.59,1.34,1.34,0,0,0,.27-.9,4.38,4.38,0,0,0-.64-1.37c-1.24-1.9-2.24-2.85-3-2.85a1.62,1.62,0,0,0-.56.1C8.26,8.07,7.49,9,7.49,10.36a3.82,3.82,0,0,0,.28,1.38A22.2,22.2,0,0,0,20.13,24.1,1.47,1.47,0,0,0,20.93,24.33ZM23.74,16q.38,0,.42-.24a.71.71,0,0,0,0-.26,2.06,2.06,0,0,0,0-.21,1.23,1.23,0,0,1,0-.29,7.25,7.25,0,0,0-1-3.74,8.24,8.24,0,0,0-2.69-2.82,7.42,7.42,0,0,0-3.76-1.22l-.2,0-.31,0c-.29,0-.43.17-.43.5a.31.31,0,0,0,.15.31.9.9,0,0,0,.34.09.71.71,0,0,1,.31.07,8,8,0,0,1,4.77,2.09,8.32,8.32,0,0,1,2,4.81l-.05.35a2.08,2.08,0,0,0,.05.39C23.39,15.9,23.51,16,23.74,16Zm-2-.8a.49.49,0,0,0,.34-.53v-.18a.59.59,0,0,1,0-.17A4.72,4.72,0,0,0,20.78,11a5.75,5.75,0,0,0-3.32-1.78,2.17,2.17,0,0,0-.55-.07l-.27,0c-.13,0-.21.21-.24.55s.22.38.66.38a5.71,5.71,0,0,1,3,1.37,5.12,5.12,0,0,1,1.19,2.81v.3a1.07,1.07,0,0,0,.07.39C21.35,15.11,21.5,15.17,21.77,15.17Zm-2-.66c.21,0,.34-.11.37-.25a1.65,1.65,0,0,0,.06-.43,2.47,2.47,0,0,0-.8-1.72,2.35,2.35,0,0,0-1.7-.82H17.3a.41.41,0,0,0-.33.46c0,.22.17.36.5.43a1.82,1.82,0,0,1,1.74,1.88A.51.51,0,0,0,19.74,14.51Z"/>
</g>
</svg>