<svg width="63" height="60" viewBox="0 0 63 105" fill="none" xmlns="http://www.w3.org/2000/svg">
<path d="M29.5 30L55.0477 74.25H3.95225L29.5 30Z" fill="#F2C640"/>
<path d="M59.08 27.44V59.43C59.08 65.3567 57.5167 69.86 54.39 72.94C51.31 75.9733 46.97 77.49 41.37 77.49C35.35 77.49 30.5667 75.8333 27.02 72.52C23.4733 69.2067 21.7 64.3767 21.7 58.03H37.03C37.03 60.0367 37.3567 61.46 38.01 62.3C38.6633 63.0933 39.55 63.49 40.67 63.49C41.6033 63.49 42.3267 63.1867 42.84 62.58C43.3533 61.9733 43.61 60.9233 43.61 59.43V27.44H59.08Z" fill="white"/>
</svg>
